<svg xmlns="http://www.w3.org/2000/svg" xmlns:xlink="http://www.w3.org/1999/xlink" viewBox="0 0 448 448">
  <style type="text/css">
    .da6{fill:none;stroke:#2E3545;stroke-width:4.0727;stroke-linecap:round;stroke-linejoin:round;stroke-miterlimit:10;}
    .da7{fill:none;stroke:#2E3545;stroke-width:3.0545;stroke-linecap:round;stroke-linejoin:round;stroke-miterlimit:10;}
  </style>
  <defs>
    <circle id="a" cx="224" cy="224" r="223"/>
  </defs>
  <clipPath id="b">
    <use overflow="visible" xlink:href="#a"/>
  </clipPath>
  <path fill="#fff" d="M-136-75.3h916.9v746H-136z" clip-path="url(#b)"/>
  <g clip-path="url(#b)">
    <defs>
      <path id="c" d="M198.4 318.2c-7.6 7.2-79.7 13.2-123.3 21.6-39.9 7.7-45 66.7-43.5 121.9v124.5h414l-4-121.2c0-130.4-41-123.8-88.1-129.3s-88.2-12.4-94-17.2l-61.1-.3z"/>
    </defs>
    <use fill="#f0b5a1" overflow="visible" xlink:href="#c"/>
    <clipPath id="d">
      <use overflow="visible" xlink:href="#c"/>
    </clipPath>
    <path fill="#e1c9f2" d="M519.4 648l-566.6 8.2-4-418.4h566.6z" clip-path="url(#d)"/>
    <path fill="none" stroke="#2e3545" stroke-linecap="round" stroke-linejoin="round" stroke-miterlimit="10" stroke-width="1.5273" d="M273.8 322.7c.9 7.2.8 16.2-5.4 23.7-6.5 7.9-17.7 11.7-34.2 11.7-16.4 0-29.3-4.7-38.3-14-6.6-6.8-9.8-14.7-11.4-21m86.5-7.9c13.9 4.2 51 9 89.6 13.5 47.1 5.5 88.1-1.1 88.1 129.3M184.5 314.5c-20.1 5.9-78.4 10.8-116.4 18.2-39.9 7.7-45 66.7-43.5 121.9"/>
    <path d="M264.7 275.2c5.9-2.7 12.1 2.3 19.2-2.4 7.1-4.7 4.4-8.7 13-14.7 8.6-5.9 15.4-2.1 18.7-8.4 3.3-6.3-1.2-18 2-25.3 3.2-7.3 10.8-9.3 12.1-20.8.9-8.1-5.6-22.5-4.6-31s12.3-16 12.7-27.8c.4-11.8-11.1-24.7-16.1-31.5-5-6.8-7.1-22.6-14-31.4-6.9-8.8-13-5.7-26.3-9.5s-13.7-11.7-33.9-16.3-18.6 7.2-37.2 9.6c-7 .9-22.7-4.3-32.4-1.1C168 67.8 156.6 81 152 87c-4.6 6-22.9 11.1-28.5 21.4s-5.5 29.6-4.3 43.3c1.3 13.7-4.4 18.2-6.7 30s6.8 23 13.1 30.4c6.3 7.3.2 18.3 6 28.2 5.8 9.8 13.8 7.5 22.4 11.7 8.6 4.2 3.4 15.3 14.1 16.5 10.7 1.3 15.1.4 27.7 6.1 9.1 4.1 13 10.4 21.2 10.9s10.9-8.1 20.5-9.5c9.7-1.4 13.9 6.7 27.2-.8z" fill="#2E3545"/>
    <path fill="#de9557" d="M194.7 310.5c-.8 13.5-1 39.2 38.4 40.4 44.8 1.6 33.4-31.1 31.8-37.3s-3.6-22.2-4.3-34c-.7-11-1.4-19.5 7.4-22.9 13.5-5.3 14.4-14.9 14-26.3-.3-8.9-2.3-59.8-2.9-67.5-.6-7.8-1.6-11.5-6.4-11.4-6.4.1-7.1 4-17.5 6.1S240.4 147 229.1 146s.5 13.1-8.6 12.8c-9.1-.3-14.6-4-20.9.8-6.8 5.2 13.5 25.5-6 33.2-.6-4.8-1.8-10.6-7-10.8-5.2-.2-13 5.4-13.4 18-.6 16.6 14.2 24.6 21.4 17.9 0 0 .9 79.9.1 92.6z"/>
    <path d="M231.1 233.4c2.5 4.5 12.3 11.6 23.1 3.1" class="da6"/>
    <path d="M222.4 190.2c3.6-3.9 9.6-8.5 17.2-2.8" class="da7"/>
    <ellipse cx="231.7" cy="191.8" fill="#2E3545" rx="3" ry="4.4" transform="rotate(-4.642 231.708 191.824) scale(.99998)"/>
    <ellipse cx="268.3" cy="189.2" fill="#2E3545" rx="3" ry="4.4" transform="rotate(-4.642 268.271 189.222) scale(.99998)"/>
    <path d="M259.3 187.2c2.4-4.3 10.4-9.4 16.6 0" class="da7"/>
    <path d="M250.1 219s2.5-.7 10.2-3.4c-3.7-7.7-7.5-21.2-7.5-21.2" class="da6"/>
    <path fill="none" stroke="#fff" stroke-linecap="round" stroke-linejoin="round" stroke-miterlimit="10" stroke-width="3.054" d="M188.4 214.4c9.4.3 16.8 8.7 16.5 18.6-.3 10-8.3 17.8-17.7 17.4s-16.8-8.7-16.5-18.6c.2-4.4 1.8-8.3 4.3-11.3"/>
    <path d="M215.4 175.5c2.6-1.8 8.8-4.9 8.8-4.9s10.1-1.8 12.1-1.9c1.9 0 2.5.4 2.7 2.6s0 3.3-2.7 3.3c-2.8.1-11.4.8-11.4.8s-6.5 2-8.5 3c-2.2 1.1-3-1.6-1-2.9zm42.1-4.8c0-1.9.6-2.4 2.8-2.4 2.2 0 8.5.1 10.3.1 4 0 6.2 3.8 6.8 6.5.4 1.6-.5 2.5-2.1 0-1.7-2.7-5-1.4-6.8-1.4-1.8 0-6.5.1-8.4.1-2.3-.1-2.6-1-2.6-2.9z" fill="#2E3545"/>
  </g>
  <path fill="#fff" d="M224 13.9c28.4 0 55.9 5.6 81.8 16.5 25 10.6 47.5 25.7 66.8 45 19.3 19.3 34.4 41.8 45 66.8 11 25.9 16.5 53.4 16.5 81.8s-5.6 55.9-16.5 81.8c-10.6 25-25.7 47.5-45 66.8-19.3 19.3-41.8 34.4-66.8 45-25.9 11-53.4 16.5-81.8 16.5s-55.9-5.6-81.8-16.5c-25-10.6-47.5-25.7-66.8-45-19.3-19.3-34.4-41.8-45-66.8-11-25.9-16.5-53.4-16.5-81.8s5.6-55.9 16.5-81.8c10.6-25 25.7-47.5 45-66.8 19.3-19.3 41.8-34.4 66.8-45 25.9-10.9 53.4-16.5 81.8-16.5M224 0C100.3 0 0 100.3 0 224s100.3 224 224 224 224-100.3 224-224S347.7 0 224 0z"/>
</svg>
