<svg xmlns="http://www.w3.org/2000/svg" xmlns:xlink="http://www.w3.org/1999/xlink" viewBox="0 0 448 448">
  <style>
    .fr4,.fr6{fill:none;stroke:#2e3545;stroke-linecap:round;stroke-linejoin:round;stroke-miterlimit:10;stroke-width:1.5889}.fr6{stroke-width:3.1778;}
  </style>
  <defs>
    <circle id="SVGID_1_" cx="224" cy="224" r="223"/>
  </defs>
  <clipPath id="SVGID_2_">
    <use overflow="visible" xlink:href="#SVGID_1_"/>
  </clipPath>
  <path fill="#fff" d="M-116.9-59.3h779.3V654h-779.3z" clip-path="url(#SVGID_2_)"/>
  <g clip-path="url(#SVGID_2_)">
    <path fill="#fff" d="M154.5 286.9l88.5-2.6 65.5 13.5 17.9 193.3-205.3-21.9z"/>
    <path fill="#87d9aa" d="M176.5 295.8l47.4-3.7 76.7 9.2c-1.7 12.6-12.9 20.1-26.5 27.1-14.7 7.6-19.6 3.8-22.9 19.6s0 65.3 3.3 106c3.3 40.6 7.1 103.1-3.3 158.6l217.4-86.9s-9.8-69.8-12.7-134.1c-2.9-64.3-21.8-78.7-48.6-80.6s-58.3-4.5-87.5-7.4c-8.7-29.1-36.5-40.7-57.3-46l-68.8-22.8a97.1 97.1 0 0 0-41-9.8c-49.4.7-44 63.5-22.2 79.8-21.1 2.4-61.5 7.7-104.3 16.3-75.5 15.2-57.3 139.8-55 186.1l235.4 117.4c-5.4-88.2 1.1-232.2 4.4-256.1s7.6-35.9-8.7-45.7a97 97 0 0 1-25.8-27z"/>
    <path d="M-28.8 507.2c-2.3-46.3-24.1-176.4 51.4-191.6a1010 1010 0 0 1 120.5-17.8m122.8-45.9c20.8 5.2 48.6 16.9 57.3 46 29.2 2.9 60.6 5.5 87.5 7.4 26.9 1.9 45.7 16.2 48.6 80.6s9.4 139.8 9.4 139.8" class="fr4"/>
    <path d="M120.4 300c-21.8-16.2-18.6-79 30.8-79.7a92.7 92.7 0 0 1 40.1 8.5m-3.2 109.8c-19-24.7-46.5-29.8-61.2-67" class="fr4"/>
    <path d="M150.9 276.7c-12.1-13.9-13.9-34.6 0-41.3 14.9-7.2 28.5 1.9 41.9 6m-27 32.5a102.1 102.1 0 0 0 36.5 48.8c16.2 10 12 21.8 8.7 45.7s-9.8 167.9-4.4 256.1m44.7-11.9c10.3-55.5 6.5-118 3.3-158.6-3.3-40.6-6.5-90.2-3.3-106s8.2-12 22.9-19.6c14.7-7.6 26.7-15.8 26.7-30.5s-10.3-18.6-10.3-18.6" class="fr4"/>
    <circle cx="201.2" cy="343.9" r="5.4" class="fr4"/>
    <circle cx="270" cy="360.6" r="5.4" class="fr4"/>
    <path d="M201.2 343.9c-10.2 60.4 30.9 57.9 20 130.1m-1.9 0l3.9 1-4.3 17.4-3.9-1zm62 6.2h4v17.9h-4zM270 360.6c15.8 25.2-3.4 36.8 0 68 3.4 31.2 12.6 32.7 13.3 50.8" class="fr4"/>
    <path fill="#faca78" d="M186.3 158.5c-16-9.4-20.6 5.1-20.4 16.7.2 11.6 15.1 20.7 20.4 20.7 0 0 9.9 58.8 8.3 90.3-2.3 46.2 85.7 46.6 77.5 5.2-4.3-21.7-9.3-48.4-9.3-48.4-1.5-7.6 3-8.7 16.4-15.9 13.4-7.3 12-42.8 6.5-82.8-5.5-40.1-22.5-73.7-64.6-67.1s-58.1 36.3-51.3 81.9"/>
    <path d="M219.4 164c.8-7.4 15.2-12.4 21-4.5" class="fr6"/>
    <path fill="#2e3545" d="M211.5 149.4l9.8-4.4s13.3-1.5 15.2-1.5 1.7-1.6 1.4-2.9c-.3-1.2 1.1-3.8-4-3.1-5 .7-15.2 2.6-15.2 2.6l-7.5 5.5c-2.2 1.7-1.7 4.7.3 3.8zm49-10.2c.1 2 .4 2.5 4.4 2.6 4 .1 13 .8 13 .8s2.1 2.8 2.3 4.1c.2 1.3 2.1 1.5 1.6-1.6-.5-3.2-2.7-6.4-2.7-6.4s-2.4-.9-5.5-1.6c-3.1-.7-9-1.1-10.6-.9s-2.6 1.1-2.5 3z"/>
    <ellipse cx="231" cy="161.7" fill="#2e3545" rx="3.5" ry="5.1"/>
    <path d="M280.5 159c-3.3-7.1-14.9-8.8-20-.5" class="fr6"/>
    <ellipse cx="270.1" cy="159.3" fill="#2e3545" rx="3.5" ry="5.1" transform="rotate(-4.2 270.1 159.3) scale(1.00001)"/>
    <path fill="none" stroke="#2e3545" stroke-linecap="round" stroke-linejoin="round" stroke-miterlimit="10" stroke-width="4.2" d="M252.3 192.7s2.9-.9 11.8-4.4c-4.7-8.9-9.6-24.5-9.6-24.5"/>
    <circle cx="194.6" cy="178.7" r="2.1" fill="#273f30"/>
    <path fill="#273f30" d="M190.9 170.3a2 2 0 0 0-2.1 2.1 2 2 0 0 0 2.1 2.1 2 2 0 0 0 2.1-2.1 2 2 0 0 0-2.1-2.1zm-1.8-6.5a2 2 0 0 0 2.1 2.1 2 2 0 0 0 2.1-2.1 2 2 0 0 0-2.1-2.1c-1.1.1-2.1 1-2.1 2.1zm2.8-9.3a2 2 0 0 0-2.1-2.1 2 2 0 0 0-2.1 2.1 2 2 0 0 0 2.1 2.1c1.2 0 2.1-1 2.1-2.1zm-3.1-8.9a2 2 0 0 0-2.1-2.1 2 2 0 0 0-2.1 2.1 2 2 0 0 0 2.1 2.1c1.2 0 2.1-1 2.1-2.1zm-6.2-8.2a2 2 0 0 0 2.1-2.1 2 2 0 0 0-2.1-2.1 2 2 0 0 0-2.1 2.1c0 1.1.9 2.1 2.1 2.1z"/>
    <circle cx="184.7" cy="121.7" r="2.1" fill="#273f30"/>
    <path fill="#273f30" d="M196 160.3a2 2 0 0 0 2.1-2.1 2 2 0 0 0-2.1-2.1 2 2 0 0 0-2.1 2.1 2 2 0 0 0 2.1 2.1z"/>
    <circle cx="196.3" cy="168.6" r="2.1" fill="#273f30"/>
    <circle cx="193.3" cy="111.8" r="2.1" fill="#273f30"/>
    <path fill="#273f30" d="M202.9 104.5a2 2 0 0 0-2.1 2.1 2 2 0 0 0 2.1 2.1 2 2 0 0 0 2.1-2.1c0-1.1-1-2.1-2.1-2.1zm10.8-2.8a2 2 0 0 0-2.1 2.1 2 2 0 0 0 2.1 2.1 2 2 0 0 0 2.1-2.1c-.1-1.2-1-2.1-2.1-2.1zm12.6 0a2 2 0 0 0-2.1 2.1 2 2 0 0 0 2.1 2.1 2 2 0 0 0 2.1-2.1c0-1.2-1-2.1-2.1-2.1z"/>
    <circle cx="236.2" cy="106" r="2.1" fill="#273f30"/>
    <circle cx="243.6" cy="105.8" r="2.1" fill="#273f30"/>
    <circle cx="250.7" cy="102.5" r="2.1" fill="#273f30"/>
    <path fill="#273f30" d="M258.8 93.6a2 2 0 0 0-2.1 2.1 2 2 0 0 0 2.1 2.1 2 2 0 0 0 2.1-2.1c-.1-1.2-1-2.1-2.1-2.1zm10.3 6.3a2 2 0 0 0 2.1 2.1 2 2 0 0 0 1.5-.6c-.7-1.2-1.3-2.3-2.1-3.4a2 2 0 0 0-1.5 1.9zm6.4 9.8a2 2 0 0 0 2.1 2.1h.1l-1.5-3.6c-.4.4-.7.9-.7 1.5zm-92.9 39.8a2 2 0 0 0-2.1 2.1 2 2 0 0 0 2.1 2.1 2 2 0 0 0 2.1-2.1c0-1.2-1-2.1-2.1-2.1zm-6.3-3.3a2 2 0 0 0-2.1 2.1 2 2 0 0 0 2.1 2.1 2 2 0 0 0 2.1-2.1c0-1.1-.9-2.1-2.1-2.1z"/>
    <circle cx="173.6" cy="141.9" r="2.1" fill="#273f30"/>
    <circle cx="173.6" cy="126.2" r="2.1" fill="#273f30"/>
    <path fill="#273f30" d="M169.4 137.4a2 2 0 0 0 2.1-2.1 2 2 0 0 0-2.1-2.1l-.8.2-.2 3.7c.3.2.7.3 1 .3zm0 12.4a2 2 0 0 0 2.1-2.1 2 2 0 0 0-2.1-2.1l-.9.2.2 3.8.7.2zm-1-6.2c.6-.4 1-1 1-1.7s-.4-1.4-1-1.7v3.4zm.4-11.7a2 2 0 0 0 2.1-2.1 2 2 0 0 0-1.8-2l-.3 4.1c0-.1 0 0 0 0zm2.7-10.2a2 2 0 0 0 2.1-2.1 2 2 0 0 0-2.1-2.1h-.2l-1 3.7c.3.3.7.5 1.2.5zm1-6.6a2 2 0 0 0 2.1-2.1 2 2 0 0 0-1.1-1.8L172 115l.5.1z"/>
    <circle cx="181.1" cy="105.8" r="2.1" fill="#273f30"/>
    <path fill="#273f30" d="M191.2 97.8a2 2 0 0 0-2.1 2.1 2 2 0 0 0 2.1 2.1 2 2 0 0 0 2.1-2.1c0-1.1-.9-2.1-2.1-2.1zm13.8-3.7a2 2 0 0 0 2.1 2.1 2 2 0 0 0 2.1-2.1 2 2 0 0 0-2.1-2.1c-1.2.1-2.1 1-2.1 2.1zm-8.4-.8a2 2 0 0 0-2.1 2.1 2 2 0 0 0 2.1 2.1 2 2 0 0 0 2.1-2.1c0-1.1-.9-2.1-2.1-2.1z"/>
    <circle cx="184.7" cy="99.6" r="2.1" fill="#273f30"/>
    <circle cx="214" cy="90" r="2.1" fill="#273f30"/>
    <path fill="#273f30" d="M222.1 83.5a2 2 0 0 0-2.1 2.1 2 2 0 0 0 2.1 2.1 2 2 0 0 0 2.1-2.1 2 2 0 0 0-2.1-2.1z"/>
    <circle cx="229.6" cy="82.5" r="2.1" fill="#273f30"/>
    <path fill="#273f30" d="M238.3 78.1a2 2 0 0 0-2.1 2.1 2 2 0 0 0 2.1 2.1 2 2 0 0 0 2.1-2.1 2 2 0 0 0-2.1-2.1zm4.7.9a2 2 0 0 0 2.1 2.1 2 2 0 0 0 2.1-2.1v-.1l-3.8-1.1c-.2.4-.4.8-.4 1.2zm-68.4 29.7a2 2 0 0 0 2.1-2.1c0-.5-.2-.9-.5-1.2l-1.7 3.3h.1zm4.4-6.2a2 2 0 0 0 2.1-2.1 2 2 0 0 0-.7-1.5l-2.3 3.4.9.2zm4-6.6c.3.2.7.3 1.1.3a2 2 0 0 0 2.1-2.1c0-.4-.2-.8-.4-1.1-1 .9-2 1.9-2.8 2.9zm4-3.2c0 1.2.9 2.1 2.1 2.1s2.1-.9 2.1-2.1a2 2 0 0 0-3.1-1.8l-.7.6c-.2.3-.4.7-.4 1.2z"/>
    <circle cx="201.9" cy="90.4" r="2.1" fill="#273f30"/>
    <path fill="#273f30" d="M211.2 86.7a2 2 0 0 0-2.1-2.1 2 2 0 0 0-2.1 2.1 2 2 0 0 0 2.1 2.1 2 2 0 0 0 2.1-2.1zm7-3.2a2 2 0 0 0-2.1-2.1c-1.2 0-2.1.9-2.1 2.1s.9 2.1 2.1 2.1c1.2-.1 2.1-1 2.1-2.1zm5.7-6.6c-1.2 0-2.1.9-2.1 2.1s.9 2.1 2.1 2.1c1.2 0 2.1-.9 2.1-2.1s-1-2.1-2.1-2.1zm8.5 1.5c1.1 0 2-.9 2.1-1.9l-4.1-.1c0 1.2.9 2 2 2zM192 88.3a2 2 0 0 0 2.1 2.1 2 2 0 0 0 2.1-2.1 2 2 0 0 0-1.7-2c-.9.5-1.6 1.1-2.4 1.7l-.1.3zm9.9-2.8a2 2 0 0 0 2.1-2.1 2 2 0 0 0-.6-1.5l-3.6 1.5a2 2 0 0 0 2.1 2.1zm7.8-3.6a2 2 0 0 0 2.1-2.1l-.1-.6-3.9 1.1a2 2 0 0 0 1.9 1.6zm7.1-2.1a2 2 0 0 0 2.1-2.1v-.1l-4 .8a2 2 0 0 0 1.9 1.4z"/>
    <circle cx="179.8" cy="112.5" r="2.1" fill="#273f30"/>
    <path fill="#273f30" d="M234.2 95.9a2 2 0 0 0 2.1-2.1 2 2 0 0 0-2.1-2.1 2 2 0 0 0-2.1 2.1 2 2 0 0 0 2.1 2.1z"/>
    <circle cx="240.4" cy="92.7" r="2.1" fill="#273f30"/>
    <circle cx="249.8" cy="88.3" r="2.1" fill="#273f30"/>
    <path fill="#273f30" d="M260.8 86.8a2 2 0 0 0 .7 4 2 2 0 0 0 2-1.7l-2.7-2.3zm-18.3-3.3a2 2 0 0 0-2.1 2.1 2 2 0 0 0 2.1 2.1 2 2 0 0 0 2.1-2.1c0-1.2-1-2.1-2.1-2.1zm6.1-1.3a2 2 0 0 0 2.1 2.1 2 2 0 0 0 1.8-3.1l-2.2-1c-.9.2-1.7 1-1.7 2zm5.6 2.1a2 2 0 0 0 2.1 2.1 2 2 0 0 0 2-1.7l-3.2-2.1a2 2 0 0 0-.9 1.7z"/>
    <circle cx="234.5" cy="86.4" r="2.1" fill="#273f30"/>
    <circle cx="227.5" cy="90" r="2.1" fill="#273f30"/>
    <path fill="#273f30" d="M221 90.6c-1.2 0-2.1.9-2.1 2.1s.9 2.1 2.1 2.1c1.2 0 2.1-.9 2.1-2.1s-.9-2.1-2.1-2.1zm-49.5 61a2 2 0 0 0-2.1 2.1 2 2 0 0 0 2.1 2.1 2 2 0 0 0 2.1-2.1 2 2 0 0 0-2.1-2.1zm2.1-17.5a2 2 0 0 0 2.1 2.1 2 2 0 0 0 2.1-2.1 2 2 0 0 0-2.1-2.1 2 2 0 0 0-2.1 2.1zm2.7-14a2 2 0 0 0 2.1 2.1 2 2 0 0 0 2.1-2.1 2 2 0 0 0-2.1-2.1c-1.1 0-2.1.9-2.1 2.1zm9.9-13.5a2 2 0 0 0 2.1 2.1 2 2 0 0 0 2.1-2.1 2 2 0 0 0-2.1-2.1c-1.1 0-2.1 1-2.1 2.1z"/>
    <circle cx="200.8" cy="99.6" r="2.1" fill="#273f30"/>
    <circle cx="213.7" cy="96.9" r="2.1" fill="#273f30"/>
    <circle cx="227.2" cy="96.9" r="2.1" fill="#273f30"/>
    <circle cx="239.4" cy="99.6" r="2.1" fill="#273f30"/>
    <path fill="#273f30" d="M244.5 94.1a2 2 0 0 0 2.1 2.1 2 2 0 0 0 2.1-2.1 2 2 0 0 0-2.1-2.1c-1.2 0-2.1 1-2.1 2.1zm13.1-3.5a2 2 0 0 0-2.1-2.1 2 2 0 0 0-2.1 2.1 2 2 0 0 0 2.1 2.1c1.1 0 2.1-.9 2.1-2.1z"/>
    <circle cx="180.5" cy="141.9" r="2.1" fill="#273f30"/>
    <circle cx="179.8" cy="127.7" r="2.1" fill="#273f30"/>
    <path fill="#273f30" d="M188.8 114.6a2 2 0 0 0-2.1-2.1c-1.2 0-2.1.9-2.1 2.1s.9 2.1 2.1 2.1c1.2 0 2.1-1 2.1-2.1zm7.3-6.7c1.2 0 2.1-.9 2.1-2.1s-.9-2.1-2.1-2.1c-1.2 0-2.1.9-2.1 2.1s1 2.1 2.1 2.1zm13.6-5.9a2 2 0 0 0-2.1-2.1 2 2 0 0 0-2.1 2.1 2 2 0 0 0 2.1 2.1 2 2 0 0 0 2.1-2.1zm10.8-3.7c-1.2 0-2.1.9-2.1 2.1s.9 2.1 2.1 2.1c1.2 0 2.1-.9 2.1-2.1s-1-2.1-2.1-2.1zm12.1.9c-1.2 0-2.1.9-2.1 2.1s.9 2.1 2.1 2.1c1.2 0 2.1-.9 2.1-2.1s-.9-2.1-2.1-2.1zm12.5-1.4a2 2 0 0 0-2.1 2.1 2 2 0 0 0 2.1 2.1 2 2 0 0 0 2.1-2.1c0-1.1-.9-2.1-2.1-2.1zm7.7-3.7a2 2 0 0 0-2.1 2.1 2 2 0 0 0 2.1 2.1 2 2 0 0 0 2.1-2.1c0-1.1-.9-2.1-2.1-2.1zm11.3-1.2a2 2 0 0 0 2.1 2.1c.7 0 1.3-.4 1.6-.9-.8-1.1-1.7-2.1-2.6-3-.6.4-1.1 1-1.1 1.8zm-14.8 13.9c-1.2 0-2.1.9-2.1 2.1s.9 2.1 2.1 2.1c1.2 0 2.1-.9 2.1-2.1s-1-2.1-2.1-2.1zm-49.3 4.4c-1.2 0-2.1.9-2.1 2.1s.9 2.1 2.1 2.1c1.2 0 2.1-.9 2.1-2.1s-.9-2.1-2.1-2.1zm66.9-12.4a2 2 0 0 0-2.1-2.1c-1.2 0-2.1.9-2.1 2.1s.9 2.1 2.1 2.1a2 2 0 0 0 2.1-2.1z"/>
    <circle cx="209.4" cy="108.9" r="2.1" fill="#273f30"/>
    <circle cx="239.7" cy="111.5" r="2.1" fill="#273f30"/>
    <path fill="#273f30" d="M230 107.1a2 2 0 0 0-2.1 2.1 2 2 0 0 0 2.1 2.1 2 2 0 0 0 2.1-2.1c0-1.1-1-2.1-2.1-2.1zm47.6 5.9a2 2 0 0 0-2.1 2.1 2 2 0 0 0 2.1 2.1c.8 0 1.4-.4 1.8-1l-1.2-3c-.2-.2-.4-.2-.6-.2zm-81.5 35.1a2 2 0 0 0-2.1-2.1 2 2 0 0 0-2.1 2.1 2 2 0 0 0 2.1 2.1c1.2 0 2.1-1 2.1-2.1z"/>
    <circle cx="187.7" cy="129.2" r="2.1" fill="#273f30"/>
    <path fill="#273f30" d="M190.1 140.6a2 2 0 0 0 2.1-2.1 2 2 0 0 0-2.1-2.1 2 2 0 0 0-2.1 2.1 2 2 0 0 0 2.1 2.1z"/>
    <circle cx="192.3" cy="120.1" r="2.1" fill="#273f30"/>
    <circle cx="219.6" cy="107.2" r="2.1" fill="#273f30"/>
    <path fill="#273f30" d="M257.1 100.1a2 2 0 0 0-2.1 2.1 2 2 0 0 0 2.1 2.1 2 2 0 0 0 2.1-2.1c-.1-1.2-1-2.1-2.1-2.1zm17.2 5.9a2 2 0 0 0-2.1-2.1 2 2 0 0 0-2.1 2.1 2 2 0 0 0 2.1 2.1c1.1 0 2.1-.9 2.1-2.1z"/>
    <path fill="#2e3545" d="M226.6 206.4c.6-4.9 25.5-1.9 24.9 3-.6 4.9-6.6 8.2-13.5 7.4-6.9-.9-12-5.5-11.4-10.4z"/>
    <path d="M220.4 325.9a55.1 55.1 0 0 0 15.9 2.3c18.1 0 40.5-8.8 43.2-25m-86.3-53.5c1.2 13.1 1.9 26.2 1.4 36.5m77.5 5.2l-5.2-27" class="fr4"/>
  </g>
  <path fill="#fff" d="M224 13.9A209.7 209.7 0 0 1 434.1 224 209.7 209.7 0 0 1 224 434.1 209.7 209.7 0 0 1 13.9 224 209.7 209.7 0 0 1 224 13.9M224 0a224 224 0 1 0 0 448 224 224 0 0 0 0-448z"/>
</svg>
