<svg xmlns="http://www.w3.org/2000/svg" xmlns:xlink="http://www.w3.org/1999/xlink" viewBox="0 0 448 448">
  <style type="text/css">
    .sp7{fill:none;stroke:#2E3545;stroke-width:4.0727;stroke-linecap:round;stroke-linejoin:round;stroke-miterlimit:10;}
    .sp8{fill:none;stroke:#2E3545;stroke-width:3.0545;stroke-linecap:round;stroke-linejoin:round;stroke-miterlimit:10;}
  </style>
  <defs>
    <circle id="a" cx="224" cy="224" r="223"/>
  </defs>
  <clipPath id="b">
    <use overflow="visible" xlink:href="#a"/>
  </clipPath>
  <path fill="#fff" d="M-62.1-129.8h610.2v647.6H-62.1z" clip-path="url(#b)"/>
  <g clip-path="url(#b)">
    <defs>
      <path id="c" d="M186.4 303.2c-8.4 8-93.2 14.6-141.6 24-44.4 8.6-50 74.1-48.4 135.6v138.4h460.3l-4.4-134.7c0-145-45.6-137.6-98-143.8s-93.6-13.8-100-19.2l-28.1 36-39.8-36.3z"/>
    </defs>
    <clipPath id="d">
      <use overflow="visible" xlink:href="#c"/>
    </clipPath>
    <path fill="#9fc0e4" d="M-91.1 204.8H539V670H-91.1z" clip-path="url(#d)"/>
    <g clip-path="url(#d)">
      <path fill="none" stroke="#cedff1" stroke-miterlimit="10" stroke-width="1.5273" d="M-42.4 554.9l502.9 8.4M-32.8 522l498.8 4.1m-482.2-37.2l475.3-2.7M-8 451l471.3 3.4m-472.7-44l475.5 5.3m-489.2-34.4L459.1 398M-5.2 347l483.6 23.4M19.6 323.6L512.9 347M123.8 165.8l-8.5 502.9m41.4-493.2l-4.2 498.7M189.8 192l2.7 475.4m35.2-467.1l-3.4 471.2m44-472.6l-5.4 475.5m34.5-489.3l-16.7 482.3m51-464.4l-23.5 483.6m46.9-458.8l-23.4 493.3m52.2-555.3l-8.4 502.9m41.4-493.2l-4.2 498.7M449.9 192l2.8 475.4M12.8 198.9L7.4 674.4m34.4-489.3L25.2 667.4m51-464.4L52.7 686.6m46.9-458.8L76.2 721.1"/>
    </g>
    <path d="M160.4 151.3c-3.6-11.7-5.4-34.6 3.6-46.5s22.2-6.1 22.2-6.1c3.4-14.3 16.4-26.4 34.6-26.2s33.2 21.3 48 18.6S307 97 270 114.6c-27.6 13.1-76-2.8-76-2.8 5.4 13 5.4 35.8-13.8 49.2-1.7-11-14.6-17-20.7-8.7l.9-1z" fill="#2E3545"/>
    <path fill="#c26848" d="M177.5 296.2c8.4-8 4.7-75.5.5-109.1-9.6 6.9-21 3.9-21.6-21.3s21.5-19.5 23.8-4.8c19.2-13.4 19.2-36.2 13.8-49.2 0 0 48.4 15.9 76 2.8 1.6-.8 3.2-1.5 4.6-2.3 12.6 27 13.3 91.2 12.1 107.6-1.2 16-26.5 23.2-26.5 23.2s-.1 39.3 0 53.7l-33.9 42.6-48.8-43.2z"/>
    <path d="M225.2 203.9c3.1 6.1 8.9 17.1 28.2 10.3" class="sp7"/>
    <path d="M259.3 154.8c7.3 7.1 20.6 10 22.9-1.9" class="sp8"/>
    <path d="M251.6 194.1c4.9.3 19.8-5.1 19.8-5.1l-12.3-33.8" class="sp7"/>
    <path d="M219 160.9c7 9.7 24 8.6 25.1-3.1" class="sp8"/>
    <path d="M216.9 148.1c4.1-2 13.2-5.2 17.9-5.5 4.7-.3 4.6-2.1 4.4-4.4-.1-1.4-.6-3.3-6.3-2.4-5.7.9-16.4 6.3-18.4 7.3-2 1.1-.4 6.3 2.4 5zm62.6-8.1c-4.1-1.2-13-2.6-17.3-2-4.3.6-4.6-1.1-4.8-3.4-.2-1.4-.1-3.4 5.2-3.5 5.3-.2 16.1 3.1 18.1 3.7 2 .6 1.6 6-1.2 5.2z" fill="#2E3545"/>
    <g fill="none" stroke-linecap="round" stroke-linejoin="round" stroke-miterlimit="10" stroke-width="1.5273">
      <path stroke="#07284c" d="M388.2 387.3l14.2 135.4M54.2 393.1L47 558.6"/>
      <path stroke="#000" d="M267.1 299.9c15.4 4.7 52.2 10 95.1 15 52.4 6.1 98-1.2 98 143.8M171 299.1c-22.3 6.6-91.7 12.1-134 20.3C-7.4 328-13 393.5-11.4 455m280.6-146.7l-15.8 58.4-27.1-27.2-21.9 28.4-30-52.8m51.9 24.4v221.7"/>
    </g>
  </g>
  <path fill="#fff" d="M224 13.9c28.4 0 55.9 5.6 81.8 16.5 25 10.6 47.5 25.7 66.8 45 19.3 19.3 34.4 41.8 45 66.8 11 25.9 16.5 53.4 16.5 81.8s-5.6 55.9-16.5 81.8c-10.6 25-25.7 47.5-45 66.8-19.3 19.3-41.8 34.4-66.8 45-25.9 11-53.4 16.5-81.8 16.5s-55.9-5.6-81.8-16.5c-25-10.6-47.5-25.7-66.8-45-19.3-19.3-34.4-41.8-45-66.8-11-25.9-16.5-53.4-16.5-81.8s5.6-55.9 16.5-81.8c10.6-25 25.7-47.5 45-66.8 19.3-19.3 41.8-34.4 66.8-45 25.9-10.9 53.4-16.5 81.8-16.5M224 0C100.3 0 0 100.3 0 224s100.3 224 224 224 224-100.3 224-224S347.7 0 224 0z"/>
</svg>
