<svg xmlns="http://www.w3.org/2000/svg" fill="none" viewBox="0 0 353 353">
  <path fill="#CEDFF1" fill-opacity=".2" d="M290.705 340.433a184.126 184.126 0 0 1-10.181-5.685c-19.727-11.813-41.043-29.083-62.275-50.511-9.786-9.873-18.731-19.509-26.836-28.898-17.497-20.262-31.039-39.317-40.42-56.907-2.636-4.942-5.21-10.823-6.964-14.557a212.461 212.461 0 0 0-13.947-.991c-19.572-.712-38.594 1.393-56.537 6.273-18.907 5.148-31.994 12.132-39.663 17.105-2.957 2.022-5.52 4.148-7.668 6.386L0 194.872a69.048 69.048 0 0 1 6.361-6.716c2.979-2.765 6.29-5.375 9.91-7.83l.24-.165c30.26-19.706 72.082-30.126 114.733-28.568 1.277.052 2.553.103 3.829.176-.767-6.314-.85-12.401-.259-18.251 2.148-21.005 13.013-38.574 31.413-50.82 16.884-11.235 45.484-15.011 79.263-10.926.021-12.38 2.626-23.636 7.742-33.52 8.623-16.671 24.065-28.505 44.654-34.23C314.345-.55 333.844-1.22 356 1.988v31.673c-38.096-6.459-65.15.299-74.801 18.92-3.539 6.83-4.857 15.331-3.985 25.03 20.174 4.93 40.472 12.245 59.702 21.355.041.02.093.041.135.062.052.02.103.052.166.072A326.352 326.352 0 0 1 356 108.81v36.904c-9.848-6.304-20.236-12.246-31.07-17.58-11.779-5.778-24.387-10.988-37.089-15.032 13.988 27.763 35.325 53.782 58.051 75.633A371.662 371.662 0 0 0 356 198.102v40.235c-8.821-6.891-17.777-14.485-26.764-22.717a353.698 353.698 0 0 1-4.472-4.168c-31.724-29.899-55.188-61.19-68.025-90.789-2.428-5.591-4.462-11.1-6.112-16.506-25.508-3.993-53.942-4.107-66.904 4.529-10.502 6.984-16.427 16.403-17.61 27.989-.592 5.788-.073 12.153 1.556 19.055 14.062 2.683 28.102 6.603 41.988 11.751a288.86 288.86 0 0 1 26.607 11.442c19.988 9.801 39.622 22.16 58.613 36.944 26.078 20.293 45.93 40.308 59.006 59.466a115.911 115.911 0 0 1 2.107 3.188v68.463c-2.678 1.764-5.677 3.177-8.967 4.178-14.59 4.467-34.069.753-56.318-10.729zm-64.953-132.035c-13.449-6.83-27.77-12.865-42.786-17.642 9.204 15.867 20.308 31.085 32.326 45.198 26.317 30.93 56.962 56.547 81.328 71.919 20.973 13.226 37.297 18.88 42.216 13.814 10.647-10.895-37.463-74.849-113.084-113.289z"/>
</svg>
